<?xml version="1.0" encoding="UTF-8" standalone="no"?>
<svg
   width="225"
   height="225"
   viewBox="0 0 225 225"
   fill="none"
   version="1.1"
   id="svg6"
   sodipodi:docname="yelp.svg"
   inkscape:version="1.3 (0e150ed, 2023-07-21)"
   xmlns:inkscape="http://www.inkscape.org/namespaces/inkscape"
   xmlns:sodipodi="http://sodipodi.sourceforge.net/DTD/sodipodi-0.dtd"
   xmlns="http://www.w3.org/2000/svg"
   xmlns:svg="http://www.w3.org/2000/svg">
  <defs
     id="defs6" />
  <sodipodi:namedview
     id="namedview6"
     pagecolor="#505050"
     bordercolor="#ffffff"
     borderopacity="1"
     inkscape:showpageshadow="0"
     inkscape:pageopacity="0"
     inkscape:pagecheckerboard="1"
     inkscape:deskcolor="#d1d1d1"
     inkscape:zoom="1.0488889"
     inkscape:cx="100.10593"
     inkscape:cy="112.02331"
     inkscape:window-width="1680"
     inkscape:window-height="1050"
     inkscape:window-x="0"
     inkscape:window-y="0"
     inkscape:window-maximized="0"
     inkscape:current-layer="svg6" />
  <g
     id="g6"
     transform="translate(11.369037)">
    <path
       d="m 61.5538,141.722 10.1515,-2.346 c 0.2135,-0.049 0.5662,-0.13 0.997,-0.269 2.801,-0.754 5.2013,-2.565 6.6953,-5.054 1.4941,-2.488 1.9654,-5.459 1.3146,-8.286 -0.0142,-0.062 -0.0277,-0.121 -0.042,-0.183 -0.3335,-1.355 -0.9176,-2.636 -1.7222,-3.775 -1.1377,-1.444 -2.5455,-2.651 -4.1448,-3.555 -1.8826,-1.074 -3.853,-1.987 -5.89,-2.728 l -11.1306,-4.063 c -6.2464,-2.322 -12.4924,-4.586 -18.7972,-6.794 -4.0886,-1.455 -7.5527,-2.732 -10.5628,-3.663 -0.5682,-0.175 -1.1949,-0.35 -1.7046,-0.526 -3.6389,-1.1153 -6.1957,-1.5777 -8.3595,-1.5929 -1.4452,-0.0531 -2.8848,0.2095 -4.2188,0.7693 -1.3901,0.5996 -2.6386,1.4856 -3.6638,2.6006 -0.50996,0.58 -0.98943,1.186 -1.43645,1.815 -0.41947,0.642 -0.80416,1.305 -1.15241,1.988 -0.38346,0.733 -0.71301,1.492 -0.98598,2.272 -2.06584,6.107 -3.09487,12.516 -3.04436,18.962 0.03724,5.827 0.19375,13.306 3.39669,18.376 0.7718,1.301 1.80752,2.426 3.04041,3.302 2.2818,1.575 4.5876,1.783 6.9865,1.956 3.5849,0.257 7.0579,-0.624 10.5202,-1.424 l 33.725,-7.792 z"
       fill="#ff1a1a"
       id="path1" />
    <path
       d="m 174.81,87.8259 c -2.772,-5.817 -6.498,-11.1275 -11.024,-15.7111 -0.585,-0.5819 -1.212,-1.1203 -1.876,-1.6108 -0.613,-0.4599 -1.25,-0.8874 -1.908,-1.2807 -0.676,-0.3709 -1.372,-0.7053 -2.084,-1.0019 -1.408,-0.5526 -2.917,-0.8017 -4.427,-0.7312 -1.445,0.0822 -2.855,0.478 -4.132,1.1601 -1.936,0.9624 -4.031,2.5093 -6.817,5.0995 -0.385,0.3823 -0.869,0.8137 -1.303,1.2205 -2.299,2.1613 -4.856,4.8258 -7.899,7.9286 -4.701,4.7507 -9.331,9.5274 -13.932,14.3563 l -8.232,8.5368 c -1.507,1.56 -2.88,3.245 -4.103,5.037 -1.042,1.514 -1.78,3.217 -2.171,5.014 -0.226,1.377 -0.193,2.785 0.098,4.15 0.014,0.062 0.028,0.121 0.042,0.183 0.651,2.828 2.372,5.292 4.803,6.873 2.43,1.582 5.379,2.158 8.227,1.606 0.451,-0.065 0.801,-0.143 1.014,-0.195 l 43.892,-10.141 c 3.459,-0.8 6.969,-1.532 10.077,-3.336 2.084,-1.209 4.067,-2.407 5.427,-4.824 0.726,-1.328 1.166,-2.794 1.291,-4.302 0.673,-5.982 -2.45,-12.7755 -4.963,-18.0311 z"
       fill="#ff1a1a"
       id="path2" />
    <path
       d="m 96.2523,106.283 c 3.1807,-3.996 3.1728,-9.9514 3.4573,-14.8205 0.9574,-16.2682 1.9654,-32.5386 2.7644,-48.8158 0.305,-6.1653 0.969,-12.2471 0.602,-18.4593 C 102.774,19.0626 102.737,13.1786 99.5013,8.9729 93.7897,1.55649 81.6107,2.16603 73.3008,3.31645 70.7553,3.66979 68.2052,4.14486 65.6758,4.75211 63.1463,5.35937 60.6427,6.02259 58.1932,6.80705 50.2195,9.41894 39.0097,14.2133 37.1115,23.401 c -1.0701,5.1941 1.4656,10.5073 3.4328,15.2474 2.3844,5.746 5.6413,10.9219 8.6097,16.3308 7.8478,14.2795 15.8412,28.4699 23.8121,42.6753 2.3802,4.2405 4.9749,9.6115 9.5802,11.8085 0.3044,0.133 0.6153,0.251 0.9316,0.352 2.0651,0.782 4.3162,0.933 6.4678,0.433 0.1299,-0.03 0.2568,-0.059 0.3837,-0.089 1.9868,-0.54 3.7857,-1.62 5.1971,-3.121 0.2549,-0.239 0.4972,-0.491 0.7258,-0.755 z"
       fill="#ff1a1a"
       id="path3" />
    <path
       d="m 92.4442,149.836 c -1.2415,-1.746 -3.0033,-3.055 -5.0336,-3.739 -2.0303,-0.684 -4.2251,-0.709 -6.2708,-0.069 -0.4805,0.159 -0.9488,0.354 -1.4012,0.581 -0.6996,0.356 -1.3671,0.772 -1.9951,1.244 -1.8292,1.355 -3.3696,3.116 -4.7721,4.882 -0.3558,0.45 -0.6805,1.05 -1.1037,1.435 l -7.06,9.712 c -4.0016,5.44 -7.948,10.894 -11.8613,16.435 -2.5533,3.577 -4.7619,6.598 -6.5065,9.271 -0.3306,0.503 -0.6739,1.065 -0.988,1.513 -2.0909,3.235 -3.2751,5.596 -3.8829,7.699 -0.4565,1.398 -0.601,2.878 -0.4232,4.337 0.1943,1.52 0.706,2.981 1.5018,4.29 0.4231,0.656 0.8791,1.291 1.3663,1.901 0.5063,0.588 1.044,1.147 1.6107,1.676 0.6053,0.577 1.2526,1.109 1.9367,1.591 4.873,3.39 10.2076,5.826 15.819,7.708 4.6695,1.55 9.5232,2.478 14.4358,2.759 0.8357,0.043 1.6734,0.024 2.5066,-0.054 0.7722,-0.067 1.5404,-0.175 2.3014,-0.323 0.7605,-0.177 1.5109,-0.396 2.2482,-0.653 1.4346,-0.537 2.7409,-1.368 3.8345,-2.441 1.0352,-1.037 1.832,-2.287 2.3347,-3.664 0.816,-2.034 1.3527,-4.617 1.7056,-8.451 0.031,-0.545 0.1087,-1.199 0.163,-1.799 0.2784,-3.181 0.4061,-6.918 0.6108,-11.312 0.3452,-6.758 0.616,-13.486 0.8301,-20.233 0,0 0.4547,-11.99 0.4533,-11.997 0.1041,-2.763 0.0189,-5.825 -0.7476,-8.576 -0.3365,-1.319 -0.8808,-2.575 -1.6125,-3.723 z"
       fill="#ff1a1a"
       id="path4" />
    <path
       d="m 172.135,168.61 c -1.474,-1.616 -3.562,-3.227 -6.855,-5.219 -0.475,-0.265 -1.032,-0.619 -1.546,-0.927 -2.742,-1.649 -6.045,-3.384 -9.903,-5.479 -5.927,-3.254 -11.858,-6.426 -17.845,-9.572 l -10.578,-5.61 c -0.548,-0.161 -1.105,-0.557 -1.622,-0.806 -2.032,-0.972 -4.187,-1.879 -6.423,-2.295 -0.771,-0.148 -1.553,-0.229 -2.337,-0.243 -0.507,-0.006 -1.012,0.025 -1.514,0.092 -2.115,0.328 -4.073,1.315 -5.595,2.822 -1.522,1.506 -2.53,3.454 -2.881,5.567 -0.161,1.344 -0.112,2.704 0.146,4.033 0.517,2.815 1.774,5.599 3.074,8.038 l 5.649,10.587 c 3.143,5.971 6.324,11.908 9.586,17.826 2.103,3.86 3.854,7.164 5.494,9.902 0.311,0.515 0.663,1.069 0.929,1.546 1.996,3.292 3.6,5.364 5.226,6.85 1.053,1.017 2.316,1.791 3.699,2.269 1.454,0.482 2.994,0.653 4.518,0.502 0.776,-0.092 1.546,-0.225 2.307,-0.4 0.75,-0.201 1.489,-0.441 2.213,-0.72 0.783,-0.294 1.543,-0.645 2.274,-1.05 4.295,-2.408 8.253,-5.372 11.774,-8.815 4.222,-4.155 7.954,-8.685 10.857,-13.872 0.404,-0.734 0.753,-1.496 1.046,-2.28 0.274,-0.726 0.511,-1.465 0.71,-2.215 0.171,-0.762 0.303,-1.533 0.394,-2.308 0.145,-1.524 -0.032,-3.06 -0.519,-4.511 -0.479,-1.389 -1.257,-2.657 -2.278,-3.712 z"
       fill="#ff1a1a"
       id="path5" />
    <path
       d="m 189.142,202.658 h 1.136 c 0.56,0 1.009,-0.144 1.346,-0.431 0.343,-0.295 0.515,-0.666 0.515,-1.115 0,-0.526 -0.151,-0.901 -0.452,-1.125 -0.302,-0.231 -0.778,-0.347 -1.43,-0.347 h -1.115 z m 4.564,-1.588 c 0,0.561 -0.151,1.059 -0.452,1.493 -0.295,0.428 -0.712,0.747 -1.252,0.958 l 2.503,4.154 h -1.766 l -2.177,-3.723 h -1.42 v 3.723 h -1.557 v -9.371 h 2.745 c 1.164,0 2.016,0.228 2.556,0.684 0.547,0.456 0.82,1.15 0.82,2.082 z m -11.116,1.914 c 0,-1.402 0.35,-2.717 1.051,-3.944 0.702,-1.227 1.666,-2.194 2.893,-2.902 1.227,-0.708 2.548,-1.062 3.964,-1.062 1.403,0 2.717,0.35 3.944,1.051 1.227,0.701 2.195,1.665 2.903,2.892 0.708,1.227 1.062,2.549 1.062,3.965 0,1.381 -0.34,2.678 -1.02,3.891 -0.68,1.213 -1.634,2.184 -2.861,2.914 -1.227,0.729 -2.569,1.093 -4.028,1.093 -1.451,0 -2.79,-0.361 -4.017,-1.083 -1.227,-0.729 -2.184,-1.7 -2.871,-2.913 -0.68,-1.213 -1.02,-2.514 -1.02,-3.902 z m 1.104,0 c 0,1.213 0.305,2.349 0.915,3.408 0.61,1.051 1.441,1.882 2.492,2.492 1.059,0.603 2.191,0.905 3.397,0.905 1.22,0 2.353,-0.305 3.397,-0.915 1.045,-0.61 1.872,-1.434 2.482,-2.472 0.617,-1.045 0.926,-2.184 0.926,-3.418 0,-1.22 -0.305,-2.352 -0.915,-3.397 -0.61,-1.044 -1.437,-1.872 -2.482,-2.482 -1.038,-0.617 -2.174,-0.925 -3.408,-0.925 -1.22,0 -2.352,0.305 -3.397,0.915 -1.044,0.61 -1.875,1.437 -2.492,2.482 -0.61,1.037 -0.915,2.173 -0.915,3.407 z"
       fill="#000000"
       id="path6" />
  </g>
</svg>
